<?xml version="1.0" encoding="utf-8"?>
<!-- Generator: Adobe Illustrator 25.2.1, SVG Export Plug-In . SVG Version: 6.00 Build 0)  -->
<svg version="1.1" id="Layer_1" xmlns="http://www.w3.org/2000/svg" xmlns:xlink="http://www.w3.org/1999/xlink" x="0px" y="0px"
	 viewBox="0 0 99.5 87.9" style="enable-background:new 0 0 99.5 87.9;" xml:space="preserve">
<style type="text/css">
	.st0{fill:#FFFFFF;}
	.st1{fill:#221F1F;}
	.st2{fill-rule:evenodd;clip-rule:evenodd;fill:#221F1F;}
	.st3{fill-rule:evenodd;clip-rule:evenodd;fill:#FFFFFF;}
	.st4{fill-rule:evenodd;clip-rule:evenodd;fill:#BF311A;}
	.st5{fill-rule:evenodd;clip-rule:evenodd;fill:#1F1B17;}
	.st6{fill:#BF311A;}
	.st7{fill-rule:evenodd;clip-rule:evenodd;fill:#006F53;}
	.st8{fill:#006F53;}
	.st9{fill-rule:evenodd;clip-rule:evenodd;fill:#005A9C;}
	.st10{fill-rule:evenodd;clip-rule:evenodd;fill:#F7921E;}
	.st11{fill:#F7921E;}
	.st12{fill-rule:evenodd;clip-rule:evenodd;fill:#C41230;}
	.st13{fill:#FFD046;}
	.st14{fill:#1F1B17;}
	.st15{fill:#6C2769;}
	.st16{fill:#919395;}
	.st17{fill:#BED73D;}
	.st18{fill-rule:evenodd;clip-rule:evenodd;fill:#BED73D;}
	.st19{fill:#EF3E42;}
	.st20{fill:#F7F8F9;}
	.st21{fill:#6ABC45;}
	.st22{fill-rule:evenodd;clip-rule:evenodd;fill:#FFD046;}
	.st23{fill:#010101;}
	.st24{fill:none;stroke:#221F1F;stroke-width:0.5;}
</style>
<g>
	<path class="st0" d="M54.85,84.9L98.51,9.1c0.37-0.64,0.62-1.27,0.71-2.02c0.11-1.04,0-2.13-0.38-3.1
		c-0.88-2.24-3.18-3.73-5.57-3.73L6.24,0.29c-1.59,0-3.1,0.62-4.23,1.75C0.77,3.28,0.15,4.97,0.26,6.71
		c0.06,0.9,0.37,1.74,0.81,2.52l43.67,75.63c1.02,1.76,3.07,2.78,5.08,2.78c1,0,1.99-0.24,2.87-0.72
		C53.55,86.45,54.35,85.77,54.85,84.9"/>
	<path class="st1" d="M49.82,87.9c-2.19,0-4.27-1.14-5.29-2.91L0.86,9.35c-0.5-0.88-0.79-1.76-0.84-2.63
		C-0.1,4.91,0.56,3.14,1.83,1.87C3,0.69,4.57,0.04,6.24,0.04L93.26,0c2.52,0,4.91,1.6,5.8,3.88c0.38,0.97,0.51,2.08,0.4,3.22
		c-0.08,0.71-0.3,1.36-0.74,2.12L55.07,85.03c-0.61,1.06-1.57,1.74-2.26,2.12C51.91,87.64,50.88,87.9,49.82,87.9z M93.26,0.5
		L6.24,0.54c-1.53,0-2.97,0.6-4.06,1.68C1.02,3.39,0.41,5.02,0.51,6.7c0.05,0.79,0.31,1.6,0.78,2.41l43.67,75.63
		c0.93,1.61,2.84,2.66,4.86,2.66c0.98,0,1.93-0.24,2.75-0.69c0.64-0.35,1.51-0.97,2.07-1.93L98.29,8.97c0.4-0.69,0.6-1.29,0.67-1.92
		c0.11-1.06-0.02-2.09-0.36-2.98C97.78,1.97,95.59,0.5,93.26,0.5z"/>
	<path class="st4" d="M52.93,83.78c-0.33,0.51-0.69,0.84-1.23,1.16c-0.97,0.56-2.22,0.61-3.26,0.22c-0.72-0.26-1.36-0.76-1.74-1.42
		L3,8.1c-0.45-0.78-0.6-1.67-0.43-2.56c0.33-1.71,1.95-3,3.68-3l87.03-0.04c1.79,0,3.33,1.25,3.67,3.01
		c0.17,0.87,0.06,1.7-0.39,2.47L52.93,83.78z"/>
	<path class="st3" d="M70.56,23.15c0.19-0.34,0.35-0.69,0.47-1.07c0.33-1.05,0.12-2.08-0.51-2.99c-0.69-1.01-1.86-1.62-3.07-1.62
		l-35.22,0.02c-1.72,0-3.33,1.22-3.66,2.94c-0.17,0.89-0.07,1.77,0.38,2.56l17.58,30.51c0.7,1.21,1.83,1.96,3.25,1.96
		c1.14,0,2.43-0.57,3.03-1.59L70.56,23.15z"/>
	<polygon class="st4" points="38.84,24.24 37.4,21.03 36,21.03 38.2,25.94 38.2,30.1 39.48,30.1 39.48,25.94 41.67,21.03 
		40.28,21.03 	"/>
	<polygon class="st4" points="47.66,25.85 49.58,25.85 49.58,24.57 47.66,24.57 47.66,22.31 50.78,22.31 50.78,21.03 46.39,21.03 
		46.39,30.1 50.92,30.1 50.92,28.83 47.66,28.83 	"/>
	<polygon class="st4" points="53.73,21.03 52.46,21.03 52.46,30.1 57,30.1 57,28.89 53.73,28.89 	"/>
	<path class="st4" d="M63.32,23.54c-0.13-0.75-0.39-1.47-1.01-1.96c-0.44-0.35-1.01-0.56-1.58-0.56h-2.2v9.07h2.2
		c0.62-0.04,1.1-0.16,1.61-0.56c0.84-0.67,0.99-1.68,1.1-2.67C63.55,25.76,63.51,24.63,63.32,23.54 M61.97,27.82
		c-0.15,0.59-0.66,1.01-1.27,1.01H59.8v-6.53h0.93c0.56,0,1.07,0.38,1.22,0.91c0.21,0.75,0.26,1.57,0.26,2.34
		C62.21,26.32,62.15,27.09,61.97,27.82"/>
	<rect x="43.21" y="21.03" class="st4" width="1.26" height="9.07"/>
</g>
</svg>
