<?xml version="1.0" encoding="utf-8"?>
<!-- Generator: Adobe Illustrator 25.2.1, SVG Export Plug-In . SVG Version: 6.00 Build 0)  -->
<svg version="1.1" id="Layer_1" xmlns="http://www.w3.org/2000/svg" xmlns:xlink="http://www.w3.org/1999/xlink" x="0px" y="0px"
	 viewBox="0 0 58.1 58.1" style="enable-background:new 0 0 58.1 58.1;" xml:space="preserve">
<style type="text/css">
	.st0{fill:#FFFFFF;}
	.st1{fill:#221F1F;}
	.st2{fill-rule:evenodd;clip-rule:evenodd;fill:#221F1F;}
	.st3{fill-rule:evenodd;clip-rule:evenodd;fill:#FFFFFF;}
	.st4{fill-rule:evenodd;clip-rule:evenodd;fill:#BF311A;}
	.st5{fill-rule:evenodd;clip-rule:evenodd;fill:#1F1B17;}
	.st6{fill:#BF311A;}
	.st7{fill-rule:evenodd;clip-rule:evenodd;fill:#006F53;}
	.st8{fill:#006F53;}
	.st9{fill-rule:evenodd;clip-rule:evenodd;fill:#005A9C;}
	.st10{fill-rule:evenodd;clip-rule:evenodd;fill:#F7921E;}
	.st11{fill:#F7921E;}
	.st12{fill-rule:evenodd;clip-rule:evenodd;fill:#C41230;}
	.st13{fill:#FFD046;}
	.st14{fill:#1F1B17;}
	.st15{fill:#6C2769;}
	.st16{fill:#919395;}
	.st17{fill:#BED73D;}
	.st18{fill-rule:evenodd;clip-rule:evenodd;fill:#BED73D;}
	.st19{fill:#EF3E42;}
	.st20{fill:#F7F8F9;}
	.st21{fill:#6ABC45;}
	.st22{fill-rule:evenodd;clip-rule:evenodd;fill:#FFD046;}
	.st23{fill:#010101;}
	.st24{fill:none;stroke:#221F1F;stroke-width:0.5;}
</style>
<g>
	<path class="st0" d="M3.85,0.25h50.4c1.98,0,3.6,1.62,3.6,3.6v50.4c0,1.98-1.62,3.6-3.6,3.6H3.85c-1.98,0-3.6-1.62-3.6-3.6V3.85
		C0.25,1.87,1.87,0.25,3.85,0.25"/>
	<path class="st1" d="M54.25,58.1H3.85C1.73,58.1,0,56.37,0,54.25V3.85C0,1.73,1.73,0,3.85,0h50.4c2.12,0,3.85,1.73,3.85,3.85v50.4
		C58.1,56.37,56.37,58.1,54.25,58.1z M3.85,0.5C2,0.5,0.5,2,0.5,3.85v50.4c0,1.85,1.5,3.35,3.35,3.35h50.4
		c1.85,0,3.35-1.5,3.35-3.35V3.85c0-1.85-1.5-3.35-3.35-3.35H3.85z"/>
	<polygon class="st2" points="3.86,1.21 54.24,1.21 54.39,1.21 54.52,1.22 54.65,1.24 54.78,1.26 54.91,1.29 55.03,1.33 55.15,1.37 
		55.27,1.42 55.39,1.47 55.5,1.53 55.61,1.59 55.72,1.66 55.83,1.74 55.93,1.81 56.02,1.9 56.11,1.99 56.2,2.08 56.28,2.17 
		56.36,2.27 56.44,2.38 56.51,2.48 56.57,2.59 56.63,2.71 56.68,2.83 56.73,2.94 56.77,3.07 56.8,3.19 56.84,3.32 56.86,3.45 
		56.87,3.58 56.89,3.71 56.89,3.86 56.89,54.24 56.89,54.39 56.87,54.52 56.86,54.65 56.84,54.78 56.8,54.91 56.77,55.03 
		56.73,55.16 56.68,55.27 56.63,55.39 56.57,55.51 56.51,55.62 56.44,55.72 56.36,55.83 56.28,55.93 56.2,56.02 56.11,56.12 
		56.02,56.2 55.93,56.29 55.83,56.37 55.72,56.44 55.61,56.51 55.5,56.57 55.39,56.63 55.27,56.68 55.15,56.73 55.03,56.77 
		54.91,56.81 54.78,56.84 54.65,56.86 54.52,56.88 54.39,56.89 54.24,56.89 3.86,56.89 3.71,56.89 3.58,56.88 3.45,56.86 
		3.32,56.84 3.19,56.81 3.07,56.77 2.95,56.73 2.82,56.68 2.71,56.63 2.59,56.57 2.49,56.51 2.37,56.44 2.27,56.37 2.17,56.29 
		2.08,56.2 1.99,56.12 1.9,56.02 1.81,55.93 1.74,55.83 1.66,55.72 1.59,55.62 1.53,55.51 1.47,55.39 1.42,55.27 1.37,55.16 
		1.33,55.03 1.29,54.91 1.26,54.78 1.24,54.65 1.22,54.52 1.21,54.39 1.21,54.24 1.21,3.86 1.21,3.71 1.22,3.58 1.24,3.45 
		1.26,3.32 1.29,3.19 1.33,3.07 1.37,2.94 1.42,2.83 1.47,2.71 1.53,2.59 1.59,2.48 1.66,2.38 1.74,2.27 1.81,2.17 1.9,2.08 
		1.99,1.99 2.08,1.9 2.17,1.81 2.27,1.74 2.37,1.66 2.49,1.59 2.59,1.53 2.71,1.47 2.82,1.42 2.95,1.37 3.07,1.33 3.19,1.29 
		3.32,1.26 3.45,1.24 3.58,1.22 3.71,1.21 	"/>
	<polygon class="st3" points="3.88,2.65 54.22,2.65 54.31,2.65 54.37,2.66 54.43,2.66 54.49,2.68 54.55,2.69 54.6,2.7 54.66,2.72 
		54.71,2.74 54.76,2.77 54.81,2.79 54.87,2.82 54.91,2.85 54.96,2.89 55.01,2.93 55.05,2.96 55.1,3 55.14,3.05 55.17,3.09 
		55.21,3.14 55.24,3.18 55.28,3.23 55.31,3.28 55.33,3.34 55.36,3.39 55.38,3.44 55.4,3.5 55.41,3.55 55.42,3.61 55.44,3.67 
		55.44,3.73 55.45,3.79 55.45,3.88 55.45,54.22 55.45,54.31 55.44,54.38 55.44,54.43 55.42,54.49 55.41,54.55 55.4,54.6 
		55.38,54.66 55.36,54.71 55.33,54.77 55.31,54.82 55.28,54.87 55.24,54.92 55.21,54.96 55.17,55.01 55.14,55.06 55.1,55.1 
		55.05,55.14 55.01,55.18 54.96,55.21 54.91,55.25 54.87,55.28 54.81,55.31 54.76,55.33 54.71,55.36 54.66,55.38 54.6,55.4 
		54.55,55.41 54.49,55.43 54.43,55.44 54.37,55.44 54.31,55.45 54.22,55.45 3.88,55.45 3.79,55.45 3.73,55.44 3.67,55.44 
		3.61,55.43 3.55,55.41 3.5,55.4 3.44,55.38 3.39,55.36 3.33,55.33 3.28,55.31 3.23,55.28 3.18,55.25 3.14,55.21 3.09,55.18 
		3.05,55.14 3,55.1 2.96,55.06 2.92,55.01 2.89,54.96 2.85,54.92 2.82,54.87 2.79,54.82 2.77,54.77 2.74,54.71 2.72,54.66 2.7,54.6 
		2.69,54.55 2.67,54.49 2.66,54.43 2.66,54.38 2.65,54.31 2.65,54.22 2.65,3.88 2.65,3.79 2.66,3.73 2.66,3.67 2.67,3.61 2.69,3.55 
		2.7,3.5 2.72,3.44 2.74,3.39 2.77,3.34 2.79,3.28 2.82,3.23 2.85,3.18 2.89,3.14 2.92,3.09 2.96,3.05 3,3 3.05,2.96 3.09,2.93 
		3.14,2.89 3.18,2.85 3.23,2.82 3.28,2.79 3.33,2.77 3.39,2.74 3.44,2.72 3.5,2.7 3.55,2.69 3.61,2.68 3.67,2.66 3.73,2.66 
		3.79,2.65 	"/>
	<path class="st4" d="M11.24,11.21c2.36-2.23,5.09-4.07,8.05-5.41c4.56-2.07,9.86-2.42,14.75-1.46c4.85,0.96,9.34,3.38,12.83,6.87
		c3.49,3.49,5.91,7.97,6.88,12.8c0.98,4.88,0.49,10-1.4,14.6c-1.89,4.57-5.13,8.53-9.24,11.29c-4.14,2.77-9.07,4.26-14.05,4.26
		c-4.98,0-9.91-1.49-14.05-4.26c-4.11-2.76-7.35-6.72-9.24-11.29c-1.89-4.58-2.39-9.68-1.41-14.54c0.64-3.18,1.88-6.36,3.74-9.05
		C9.03,13.68,10.03,12.34,11.24,11.21"/>
	<path class="st3" d="M41.66,45.01L13.03,16.4c-1.03,1.46-2.08,2.97-2.76,4.63c-1.19,2.87-1.75,6-1.59,9.11
		c0.2,3.74,1.44,7.39,3.57,10.46c2.82,4.07,7.11,7.01,11.93,8.18c4.76,1.15,9.99,0.57,14.32-1.73
		C39.61,46.47,40.64,45.73,41.66,45.01"/>
	<path class="st3" d="M45.07,41.59c1.03-1.45,2.08-2.96,2.76-4.62c0.73-1.76,1.22-3.62,1.45-5.51c0.46-3.69-0.12-7.48-1.66-10.87
		c-2.02-4.47-5.68-8.12-10.15-10.14c-5.62-2.54-12.42-2.4-17.87,0.51c-1.1,0.59-2.13,1.32-3.16,2.04L45.07,41.59"/>
	<path class="st2" d="M41.04,37.57l-6-5.99v-7.96c0-1.58-0.64-3.12-1.76-4.23c-1.37-1.37-3.36-2.01-5.27-1.67
		c-1.18,0.21-2.29,0.78-3.16,1.61c-0.36,0.35-0.65,0.75-0.93,1.16l-4.3-4.29c0.47-0.53,0.94-1.06,1.46-1.54
		c0.81-0.74,1.73-1.34,2.72-1.82c1.63-0.78,3.43-1.2,5.24-1.2c3.16,0,6.25,1.28,8.48,3.51c2.24,2.23,3.52,5.31,3.52,8.47V37.57"/>
	<path class="st2" d="M26.73,30.09l1.39,1.39c-0.03,0.09-0.05,0.17-0.09,0.26c-0.03,0.07-0.07,0.13-0.11,0.19l-7.9,11.45L12.1,31.9
		c-0.12-0.18-0.17-0.43-0.16-0.65c0.02-0.57,0.38-1.04,0.95-1.15c0.2-0.04,0.4-0.03,0.59,0.03L17,31.2l0.02-7.59
		c0-0.49,0.03-0.98,0.09-1.46c0.06-0.48,0.15-0.95,0.26-1.42l5.67,5.66v4.84l3.51-1.11c0.02-0.01,0.06-0.01,0.08-0.02
		C26.66,30.1,26.7,30.09,26.73,30.09"/>
	<polygon class="st2" points="40.03,43.38 35.04,43.38 35.04,38.39 	"/>
</g>
</svg>
