<?xml version="1.0" encoding="utf-8"?>
<!-- Generator: Adobe Illustrator 25.2.1, SVG Export Plug-In . SVG Version: 6.00 Build 0)  -->
<svg version="1.1" id="Layer_1" xmlns="http://www.w3.org/2000/svg" xmlns:xlink="http://www.w3.org/1999/xlink" x="0px" y="0px"
	 viewBox="0 0 72.5 72.5" style="enable-background:new 0 0 72.5 72.5;" xml:space="preserve">
<style type="text/css">
	.st0{fill:#FFFFFF;}
	.st1{fill:#221F1F;}
	.st2{fill-rule:evenodd;clip-rule:evenodd;fill:#221F1F;}
	.st3{fill-rule:evenodd;clip-rule:evenodd;fill:#FFFFFF;}
	.st4{fill-rule:evenodd;clip-rule:evenodd;fill:#BF311A;}
	.st5{fill-rule:evenodd;clip-rule:evenodd;fill:#1F1B17;}
	.st6{fill:#BF311A;}
	.st7{fill-rule:evenodd;clip-rule:evenodd;fill:#006F53;}
	.st8{fill:#006F53;}
	.st9{fill-rule:evenodd;clip-rule:evenodd;fill:#005A9C;}
	.st10{fill-rule:evenodd;clip-rule:evenodd;fill:#F7921E;}
	.st11{fill:#F7921E;}
	.st12{fill-rule:evenodd;clip-rule:evenodd;fill:#C41230;}
	.st13{fill:#FFD046;}
	.st14{fill:#1F1B17;}
	.st15{fill:#6C2769;}
	.st16{fill:#919395;}
	.st17{fill:#BED73D;}
	.st18{fill-rule:evenodd;clip-rule:evenodd;fill:#BED73D;}
	.st19{fill:#EF3E42;}
	.st20{fill:#F7F8F9;}
	.st21{fill:#6ABC45;}
	.st22{fill-rule:evenodd;clip-rule:evenodd;fill:#FFD046;}
	.st23{fill:#010101;}
	.st24{fill:none;stroke:#221F1F;stroke-width:0.5;}
</style>
<g>
	<path class="st0" d="M72.25,67.75c0,2.49-2.01,4.5-4.5,4.5h-63c-2.48,0-4.5-2.01-4.5-4.5v-63c0-2.49,2.02-4.5,4.5-4.5h63
		c2.49,0,4.5,2.01,4.5,4.5V67.75z"/>
	<path class="st1" d="M67.75,72.5h-63C2.13,72.5,0,70.37,0,67.75v-63C0,2.13,2.13,0,4.75,0h63c2.62,0,4.75,2.13,4.75,4.75v63
		C72.5,70.37,70.37,72.5,67.75,72.5z M4.75,0.5C2.41,0.5,0.5,2.41,0.5,4.75v63C0.5,70.09,2.41,72,4.75,72h63
		c2.34,0,4.25-1.91,4.25-4.25v-63c0-2.34-1.91-4.25-4.25-4.25H4.75z"/>
	<path class="st1" d="M67.75,1.45h-63c-1.82,0-3.3,1.48-3.3,3.3v63c0,1.82,1.48,3.3,3.3,3.3h63c1.82,0,3.3-1.48,3.3-3.3v-63
		C71.05,2.93,69.57,1.45,67.75,1.45 M69.25,67.75c0,0.83-0.67,1.5-1.5,1.5h-63c-0.83,0-1.5-0.67-1.5-1.5v-63
		c0-0.83,0.67-1.5,1.5-1.5h63c0.83,0,1.5,0.67,1.5,1.5V67.75z"/>
	<path class="st5" d="M51.2,14.32c-3.91-2.59-8.8-4.3-13.56-4.56c-7.24-0.38-14.44,2.35-19.67,7.26l-2.56-3.22
		c-0.34-0.39-0.65-0.66-1.14-0.67c-0.73-0.01-1.33,0.58-1.33,1.31L12.8,30.92l15.35-5.98c0.68-0.26,1.01-1.03,0.75-1.71
		c-0.18-0.47-0.55-0.65-1.09-0.83l-3.9-1.27c3.68-3.02,8.56-4.59,13.35-4.34c3.57,0.19,7.24,1.53,10.11,3.51L51.2,14.32z"/>
	<path class="st5" d="M9.83,34.68c-0.25,4.68,0.72,9.55,2.92,13.77c3.34,6.44,9.35,11.25,16.23,13.27l-1.48,3.84
		c-0.16,0.48-0.24,0.9,0,1.32c0.36,0.63,1.17,0.85,1.8,0.48l14.28-8.23L30.65,48.94c-0.57-0.45-1.4-0.36-1.85,0.21
		c-0.31,0.4-0.28,0.81-0.17,1.36l0.88,4.01c-4.47-1.64-8.3-5.05-10.51-9.31c-1.65-3.18-2.36-7.01-2.1-10.49L9.83,34.68z"/>
	<path class="st5" d="M48.02,59.99c4.18-2.13,8.07-5.55,10.62-9.58c3.89-6.12,5.04-13.73,3.32-20.7l4.07-0.65
		c0.5-0.1,0.9-0.24,1.14-0.66c0.36-0.63,0.14-1.44-0.49-1.8l-14.28-8.22l-2.32,16.31c-0.1,0.72,0.4,1.39,1.12,1.5
		c0.5,0.07,0.84-0.16,1.26-0.54l3.02-2.77c0.83,4.68-0.2,9.71-2.77,13.76c-1.92,3.02-4.88,5.56-8.02,7.08L48.02,59.99z"/>
</g>
</svg>
