<?xml version="1.0" encoding="utf-8"?>
<!-- Generator: Adobe Illustrator 25.2.1, SVG Export Plug-In . SVG Version: 6.00 Build 0)  -->
<svg version="1.1" id="Layer_1" xmlns="http://www.w3.org/2000/svg" xmlns:xlink="http://www.w3.org/1999/xlink" x="0px" y="0px"
	 viewBox="0 0 83 83" style="enable-background:new 0 0 83 83;" xml:space="preserve">
<style type="text/css">
	.st0{fill:#FFFFFF;}
	.st1{fill:#221F1F;}
	.st2{fill-rule:evenodd;clip-rule:evenodd;fill:#221F1F;}
	.st3{fill-rule:evenodd;clip-rule:evenodd;fill:#FFFFFF;}
	.st4{fill-rule:evenodd;clip-rule:evenodd;fill:#BF311A;}
	.st5{fill-rule:evenodd;clip-rule:evenodd;fill:#1F1B17;}
	.st6{fill:#BF311A;}
	.st7{fill-rule:evenodd;clip-rule:evenodd;fill:#006F53;}
	.st8{fill:#006F53;}
	.st9{fill-rule:evenodd;clip-rule:evenodd;fill:#005A9C;}
	.st10{fill-rule:evenodd;clip-rule:evenodd;fill:#F7921E;}
	.st11{fill:#F7921E;}
	.st12{fill-rule:evenodd;clip-rule:evenodd;fill:#C41230;}
	.st13{fill:#FFD046;}
	.st14{fill:#1F1B17;}
	.st15{fill:#6C2769;}
	.st16{fill:#919395;}
	.st17{fill:#BED73D;}
	.st18{fill-rule:evenodd;clip-rule:evenodd;fill:#BED73D;}
	.st19{fill:#EF3E42;}
	.st20{fill:#F7F8F9;}
	.st21{fill:#6ABC45;}
	.st22{fill-rule:evenodd;clip-rule:evenodd;fill:#FFD046;}
	.st23{fill:#010101;}
	.st24{fill:none;stroke:#221F1F;stroke-width:0.5;}
</style>
<g>
	<polygon class="st0" points="0.25,24.43 0.25,58.61 24.43,82.75 58.58,82.75 82.75,58.61 82.75,24.43 58.58,0.25 24.43,0.25 	"/>
	<path class="st1" d="M58.68,83H24.33L0,58.71V24.33L24.33,0h34.35L83,24.33v34.39L58.68,83z M24.54,82.5h33.94L82.5,58.51V24.53
		L58.47,0.5H24.54L0.5,24.53v33.97L24.54,82.5z"/>
	<polygon class="st4" points="2.31,25.26 25.27,2.31 57.69,2.31 80.69,25.26 80.69,57.74 57.69,80.69 25.27,80.69 2.31,57.74 	"/>
	<path class="st3" d="M22.44,47.72c0-3.95-2.31-6.94-7.62-10.03c-2.03-1.16-2.6-1.93-2.6-3.28c0-1.83,1.45-3.18,3.28-3.18
		c1.73,0,3.09,1.25,3.18,3.18h3.76c-0.1-4.15-3.08-7.14-6.94-7.14c-3.95,0-7.04,3.18-7.04,7.14c0,2.41,1.16,4.53,3.38,6.08
		c5.59,3.76,4.05,2.7,4.63,3.28c1.64,1.25,2.22,2.41,2.22,3.95c0,2.22-1.74,4.15-3.86,4.15c-2.7,0-3.86-2.41-3.86-4.73H7.11
		c0,4.53,2.89,8.6,7.72,8.6C19.07,55.74,22.44,52.16,22.44,47.72 M37.78,31.43v-3.67H23.79v3.67h5.01v23.82h3.95V31.43H37.78z
		 M56,41.46c0-4.15-0.39-6.75-1.54-9.45c-1.35-3.37-3.28-4.72-6.46-4.72c-3.18,0-5.11,1.35-6.56,4.63c-1.16,2.6-1.54,5.4-1.54,9.55
		c0,4.24,0.39,6.85,1.54,9.55c1.35,3.28,3.28,4.74,6.56,4.74c3.09,0,5.11-1.46,6.46-4.74C55.62,48.4,56,45.7,56,41.46 M52.24,41.46
		c0,3.18-0.19,4.82-0.87,7.04c-0.67,2.31-1.73,3.38-3.37,3.38c-1.74,0-2.8-1.06-3.47-3.38c-0.58-2.22-0.87-3.95-0.87-6.94
		c0-3.09,0.19-4.92,0.87-7.04c0.67-2.31,1.73-3.38,3.47-3.38c1.64,0,2.7,1.06,3.37,3.47C51.95,36.63,52.24,38.37,52.24,41.46
		 M75.77,35.48c0-4.63-2.89-7.72-7.23-7.72h-8.2v27.49h3.95V43.19h4.24C73.17,43.19,75.77,40.49,75.77,35.48 M71.92,35.48
		c0,2.51-1.25,3.95-3.57,3.95H64.3v-7.81h4.05C70.47,31.62,71.92,33.16,71.92,35.48"/>
</g>
</svg>
